<svg version="1.1" xmlns="http://www.w3.org/2000/svg"><defs>
<path d="M2 1c-.55 0-1.046.224-1.406.594-.37.36-.594.856-.594 1.406 0 .55.224 1.046.594 1.406l3.406 3.438 3.406-3.438c.37-.37.594-.856.594-1.406 0-.55-.224-1.046-.594-1.406-.36-.37-.856-.594-1.406-.594-.55 0-1.046.224-1.406.594-.37.36-.594.856-.594 1.406 0-.55-.224-1.046-.594-1.406-.36-.37-.856-.594-1.406-.594z" id="heart"></path>
<path d="M0 0v1h8v-1h-8zm0 2v5.906c0 .06.034.094.094.094h7.813c.06 0 .094-.034.094-.094v-5.906h-2.969v1.031h-2.031v-1.031h-3z" id="box"></path>
<path d="M3 0c-.55 0-1 .45-1 1h-1c-.55 0-1 .45-1 1h7c0-.55-.45-1-1-1h-1c0-.55-.45-1-1-1h-1zm-2 3v4.813c0 .11.077.188.188.188h4.625c.11 0 .188-.077.188-.188v-4.813h-1v3.5c0 .28-.22.5-.5.5s-.5-.22-.5-.5v-3.5h-1v3.5c0 .28-.22.5-.5.5s-.5-.22-.5-.5v-3.5h-1z" id="trash"></path>
<path d="M0 1v2l3 3 1.5-1.5.5-.5-2-2-1-1h-2zm3.406 0l3 3-1.188 1.219.781.781 2-2-3-3h-1.594zm-1.906 1c.28 0 .5.22.5.5s-.22.5-.5.5-.5-.22-.5-.5.22-.5.5-.5z" id="tags"></path>
</defs></svg>